<?xml version='1.0' encoding='UTF-8'?>
<svg width="42mm" height="42mm" version="1.1" viewBox="0 0 42 42" xmlns="http://www.w3.org/2000/svg"><path d="M3.6,3.6H4.8V4.8H3.6zM4.8,3.6H6V4.8H4.8zM6,3.6H7.2V4.8H6zM7.2,3.6H8.4V4.8H7.2zM8.4,3.6H9.6V4.8H8.4zM9.6,3.6H10.8V4.8H9.6zM10.8,3.6H12V4.8H10.8zM13.2,3.6H14.4V4.8H13.2zM14.4,3.6H15.6V4.8H14.4zM16.8,3.6H18V4.8H16.8zM18,3.6H19.2V4.8H18zM21.6,3.6H22.8V4.8H21.6zM22.8,3.6H24V4.8H22.8zM24,3.6H25.2V4.8H24zM25.2,3.6H26.4V4.8H25.2zM26.4,3.6H27.6V4.8H26.4zM27.6,3.6H28.8V4.8H27.6zM30,3.6H31.2V4.8H30zM31.2,3.6H32.4V4.8H31.2zM32.4,3.6H33.6V4.8H32.4zM33.6,3.6H34.8V4.8H33.6zM34.8,3.6H36V4.8H34.8zM36,3.6H37.2V4.8H36zM37.2,3.6H38.4V4.8H37.2zM3.6,4.8H4.8V6H3.6zM10.8,4.8H12V6H10.8zM13.2,4.8H14.4V6H13.2zM14.4,4.8H15.6V6H14.4zM16.8,4.8H18V6H16.8zM20.4,4.8H21.6V6H20.4zM21.6,4.8H22.8V6H21.6zM25.2,4.8H26.4V6H25.2zM30,4.8H31.2V6H30zM37.2,4.8H38.4V6H37.2zM3.6,6H4.8V7.2H3.6zM6,6H7.2V7.2H6zM7.2,6H8.4V7.2H7.2zM8.4,6H9.6V7.2H8.4zM10.8,6H12V7.2H10.8zM14.4,6H15.6V7.2H14.4zM15.6,6H16.8V7.2H15.6zM16.8,6H18V7.2H16.8zM19.2,6H20.4V7.2H19.2zM20.4,6H21.6V7.2H20.4zM21.6,6H22.8V7.2H21.6zM26.4,6H27.6V7.2H26.4zM30,6H31.2V7.2H30zM32.4,6H33.6V7.2H32.4zM33.6,6H34.8V7.2H33.6zM34.8,6H36V7.2H34.8zM37.2,6H38.4V7.2H37.2zM3.6,7.2H4.8V8.4H3.6zM6,7.2H7.2V8.4H6zM7.2,7.2H8.4V8.4H7.2zM8.4,7.2H9.6V8.4H8.4zM10.8,7.2H12V8.4H10.8zM13.2,7.2H14.4V8.4H13.2zM15.6,7.2H16.8V8.4H15.6zM22.8,7.2H24V8.4H22.8zM24,7.2H25.2V8.4H24zM26.4,7.2H27.6V8.4H26.4zM30,7.2H31.2V8.4H30zM32.4,7.2H33.6V8.4H32.4zM33.6,7.2H34.8V8.4H33.6zM34.8,7.2H36V8.4H34.8zM37.2,7.2H38.4V8.4H37.2zM3.6,8.4H4.8V9.6H3.6zM6,8.4H7.2V9.6H6zM7.2,8.4H8.4V9.6H7.2zM8.4,8.4H9.6V9.6H8.4zM10.8,8.4H12V9.6H10.8zM15.6,8.4H16.8V9.6H15.6zM16.8,8.4H18V9.6H16.8zM18,8.4H19.2V9.6H18zM19.2,8.4H20.4V9.6H19.2zM24,8.4H25.2V9.6H24zM26.4,8.4H27.6V9.6H26.4zM30,8.4H31.2V9.6H30zM32.4,8.4H33.6V9.6H32.4zM33.6,8.4H34.8V9.6H33.6zM34.8,8.4H36V9.6H34.8zM37.2,8.4H38.4V9.6H37.2zM3.6,9.6H4.8V10.8H3.6zM10.8,9.6H12V10.8H10.8zM16.8,9.6H18V10.8H16.8zM20.4,9.6H21.6V10.8H20.4zM24,9.6H25.2V10.8H24zM25.2,9.6H26.4V10.8H25.2zM26.4,9.6H27.6V10.8H26.4zM30,9.6H31.2V10.8H30zM37.2,9.6H38.4V10.8H37.2zM3.6,10.8H4.8V12H3.6zM4.8,10.8H6V12H4.8zM6,10.8H7.2V12H6zM7.2,10.8H8.4V12H7.2zM8.4,10.8H9.6V12H8.4zM9.6,10.8H10.8V12H9.6zM10.8,10.8H12V12H10.8zM13.2,10.8H14.4V12H13.2zM15.6,10.8H16.8V12H15.6zM18,10.8H19.2V12H18zM20.4,10.8H21.6V12H20.4zM22.8,10.8H24V12H22.8zM25.2,10.8H26.4V12H25.2zM27.6,10.8H28.8V12H27.6zM30,10.8H31.2V12H30zM31.2,10.8H32.4V12H31.2zM32.4,10.8H33.6V12H32.4zM33.6,10.8H34.8V12H33.6zM34.8,10.8H36V12H34.8zM36,10.8H37.2V12H36zM37.2,10.8H38.4V12H37.2zM13.2,12H14.4V13.2H13.2zM14.4,12H15.6V13.2H14.4zM15.6,12H16.8V13.2H15.6zM16.8,12H18V13.2H16.8zM19.2,12H20.4V13.2H19.2zM20.4,12H21.6V13.2H20.4zM24,12H25.2V13.2H24zM25.2,12H26.4V13.2H25.2zM27.6,12H28.8V13.2H27.6zM3.6,13.2H4.8V14.4H3.6zM6,13.2H7.2V14.4H6zM7.2,13.2H8.4V14.4H7.2zM9.6,13.2H10.8V14.4H9.6zM10.8,13.2H12V14.4H10.8zM12,13.2H13.2V14.4H12zM15.6,13.2H16.8V14.4H15.6zM16.8,13.2H18V14.4H16.8zM18,13.2H19.2V14.4H18zM19.2,13.2H20.4V14.4H19.2zM20.4,13.2H21.6V14.4H20.4zM22.8,13.2H24V14.4H22.8zM24,13.2H25.2V14.4H24zM26.4,13.2H27.6V14.4H26.4zM27.6,13.2H28.8V14.4H27.6zM30,13.2H31.2V14.4H30zM33.6,13.2H34.8V14.4H33.6zM36,13.2H37.2V14.4H36zM37.2,13.2H38.4V14.4H37.2zM7.2,14.4H8.4V15.6H7.2zM8.4,14.4H9.6V15.6H8.4zM9.6,14.4H10.8V15.6H9.6zM13.2,14.4H14.4V15.6H13.2zM14.4,14.4H15.6V15.6H14.4zM18,14.4H19.2V15.6H18zM21.6,14.4H22.8V15.6H21.6zM22.8,14.4H24V15.6H22.8zM24,14.4H25.2V15.6H24zM25.2,14.4H26.4V15.6H25.2zM26.4,14.4H27.6V15.6H26.4zM27.6,14.4H28.8V15.6H27.6zM28.8,14.4H30V15.6H28.8zM30,14.4H31.2V15.6H30zM31.2,14.4H32.4V15.6H31.2zM32.4,14.4H33.6V15.6H32.4zM37.2,14.4H38.4V15.6H37.2zM3.6,15.6H4.8V16.8H3.6zM4.8,15.6H6V16.8H4.8zM6,15.6H7.2V16.8H6zM7.2,15.6H8.4V16.8H7.2zM9.6,15.6H10.8V16.8H9.6zM10.8,15.6H12V16.8H10.8zM12,15.6H13.2V16.8H12zM16.8,15.6H18V16.8H16.8zM18,15.6H19.2V16.8H18zM20.4,15.6H21.6V16.8H20.4zM21.6,15.6H22.8V16.8H21.6zM25.2,15.6H26.4V16.8H25.2zM27.6,15.6H28.8V16.8H27.6zM28.8,15.6H30V16.8H28.8zM31.2,15.6H32.4V16.8H31.2zM32.4,15.6H33.6V16.8H32.4zM34.8,15.6H36V16.8H34.8zM36,15.6H37.2V16.8H36zM3.6,16.8H4.8V18H3.6zM4.8,16.8H6V18H4.8zM6,16.8H7.2V18H6zM7.2,16.8H8.4V18H7.2zM14.4,16.8H15.6V18H14.4zM19.2,16.8H20.4V18H19.2zM20.4,16.8H21.6V18H20.4zM21.6,16.8H22.8V18H21.6zM26.4,16.8H27.6V18H26.4zM30,16.8H31.2V18H30zM31.2,16.8H32.4V18H31.2zM32.4,16.8H33.6V18H32.4zM37.2,16.8H38.4V18H37.2zM4.8,18H6V19.2H4.8zM8.4,18H9.6V19.2H8.4zM10.8,18H12V19.2H10.8zM22.8,18H24V19.2H22.8zM24,18H25.2V19.2H24zM27.6,18H28.8V19.2H27.6zM33.6,18H34.8V19.2H33.6zM34.8,18H36V19.2H34.8zM6,19.2H7.2V20.4H6zM13.2,19.2H14.4V20.4H13.2zM14.4,19.2H15.6V20.4H14.4zM15.6,19.2H16.8V20.4H15.6zM16.8,19.2H18V20.4H16.8zM18,19.2H19.2V20.4H18zM19.2,19.2H20.4V20.4H19.2zM26.4,19.2H27.6V20.4H26.4zM28.8,19.2H30V20.4H28.8zM30,19.2H31.2V20.4H30zM31.2,19.2H32.4V20.4H31.2zM34.8,19.2H36V20.4H34.8zM36,19.2H37.2V20.4H36zM37.2,19.2H38.4V20.4H37.2zM3.6,20.4H4.8V21.6H3.6zM4.8,20.4H6V21.6H4.8zM6,20.4H7.2V21.6H6zM8.4,20.4H9.6V21.6H8.4zM10.8,20.4H12V21.6H10.8zM12,20.4H13.2V21.6H12zM18,20.4H19.2V21.6H18zM20.4,20.4H21.6V21.6H20.4zM25.2,20.4H26.4V21.6H25.2zM26.4,20.4H27.6V21.6H26.4zM27.6,20.4H28.8V21.6H27.6zM30,20.4H31.2V21.6H30zM31.2,20.4H32.4V21.6H31.2zM32.4,20.4H33.6V21.6H32.4zM34.8,20.4H36V21.6H34.8zM36,20.4H37.2V21.6H36zM37.2,20.4H38.4V21.6H37.2zM4.8,21.6H6V22.8H4.8zM7.2,21.6H8.4V22.8H7.2zM12,21.6H13.2V22.8H12zM13.2,21.6H14.4V22.8H13.2zM15.6,21.6H16.8V22.8H15.6zM16.8,21.6H18V22.8H16.8zM19.2,21.6H20.4V22.8H19.2zM21.6,21.6H22.8V22.8H21.6zM28.8,21.6H30V22.8H28.8zM30,21.6H31.2V22.8H30zM31.2,21.6H32.4V22.8H31.2zM32.4,21.6H33.6V22.8H32.4zM36,21.6H37.2V22.8H36zM3.6,22.8H4.8V24H3.6zM4.8,22.8H6V24H4.8zM10.8,22.8H12V24H10.8zM16.8,22.8H18V24H16.8zM25.2,22.8H26.4V24H25.2zM27.6,22.8H28.8V24H27.6zM28.8,22.8H30V24H28.8zM32.4,22.8H33.6V24H32.4zM33.6,22.8H34.8V24H33.6zM36,22.8H37.2V24H36zM4.8,24H6V25.2H4.8zM6,24H7.2V25.2H6zM9.6,24H10.8V25.2H9.6zM13.2,24H14.4V25.2H13.2zM14.4,24H15.6V25.2H14.4zM16.8,24H18V25.2H16.8zM18,24H19.2V25.2H18zM19.2,24H20.4V25.2H19.2zM24,24H25.2V25.2H24zM25.2,24H26.4V25.2H25.2zM27.6,24H28.8V25.2H27.6zM31.2,24H32.4V25.2H31.2zM33.6,24H34.8V25.2H33.6zM34.8,24H36V25.2H34.8zM36,24H37.2V25.2H36zM3.6,25.2H4.8V26.4H3.6zM7.2,25.2H8.4V26.4H7.2zM8.4,25.2H9.6V26.4H8.4zM10.8,25.2H12V26.4H10.8zM16.8,25.2H18V26.4H16.8zM18,25.2H19.2V26.4H18zM25.2,25.2H26.4V26.4H25.2zM27.6,25.2H28.8V26.4H27.6zM30,25.2H31.2V26.4H30zM31.2,25.2H32.4V26.4H31.2zM34.8,25.2H36V26.4H34.8zM7.2,26.4H8.4V27.6H7.2zM12,26.4H13.2V27.6H12zM14.4,26.4H15.6V27.6H14.4zM15.6,26.4H16.8V27.6H15.6zM21.6,26.4H22.8V27.6H21.6zM22.8,26.4H24V27.6H22.8zM24,26.4H25.2V27.6H24zM28.8,26.4H30V27.6H28.8zM30,26.4H31.2V27.6H30zM34.8,26.4H36V27.6H34.8zM4.8,27.6H6V28.8H4.8zM6,27.6H7.2V28.8H6zM7.2,27.6H8.4V28.8H7.2zM8.4,27.6H9.6V28.8H8.4zM9.6,27.6H10.8V28.8H9.6zM10.8,27.6H12V28.8H10.8zM12,27.6H13.2V28.8H12zM19.2,27.6H20.4V28.8H19.2zM21.6,27.6H22.8V28.8H21.6zM27.6,27.6H28.8V28.8H27.6zM28.8,27.6H30V28.8H28.8zM30,27.6H31.2V28.8H30zM31.2,27.6H32.4V28.8H31.2zM32.4,27.6H33.6V28.8H32.4zM33.6,27.6H34.8V28.8H33.6zM34.8,27.6H36V28.8H34.8zM13.2,28.8H14.4V30H13.2zM14.4,28.8H15.6V30H14.4zM15.6,28.8H16.8V30H15.6zM19.2,28.8H20.4V30H19.2zM20.4,28.8H21.6V30H20.4zM21.6,28.8H22.8V30H21.6zM24,28.8H25.2V30H24zM25.2,28.8H26.4V30H25.2zM27.6,28.8H28.8V30H27.6zM32.4,28.8H33.6V30H32.4zM33.6,28.8H34.8V30H33.6zM34.8,28.8H36V30H34.8zM36,28.8H37.2V30H36zM37.2,28.8H38.4V30H37.2zM3.6,30H4.8V31.2H3.6zM4.8,30H6V31.2H4.8zM6,30H7.2V31.2H6zM7.2,30H8.4V31.2H7.2zM8.4,30H9.6V31.2H8.4zM9.6,30H10.8V31.2H9.6zM10.8,30H12V31.2H10.8zM13.2,30H14.4V31.2H13.2zM14.4,30H15.6V31.2H14.4zM15.6,30H16.8V31.2H15.6zM16.8,30H18V31.2H16.8zM18,30H19.2V31.2H18zM19.2,30H20.4V31.2H19.2zM22.8,30H24V31.2H22.8zM25.2,30H26.4V31.2H25.2zM26.4,30H27.6V31.2H26.4zM27.6,30H28.8V31.2H27.6zM30,30H31.2V31.2H30zM32.4,30H33.6V31.2H32.4zM33.6,30H34.8V31.2H33.6zM36,30H37.2V31.2H36zM3.6,31.2H4.8V32.4H3.6zM10.8,31.2H12V32.4H10.8zM13.2,31.2H14.4V32.4H13.2zM14.4,31.2H15.6V32.4H14.4zM15.6,31.2H16.8V32.4H15.6zM16.8,31.2H18V32.4H16.8zM22.8,31.2H24V32.4H22.8zM24,31.2H25.2V32.4H24zM27.6,31.2H28.8V32.4H27.6zM32.4,31.2H33.6V32.4H32.4zM33.6,31.2H34.8V32.4H33.6zM36,31.2H37.2V32.4H36zM3.6,32.4H4.8V33.6H3.6zM6,32.4H7.2V33.6H6zM7.2,32.4H8.4V33.6H7.2zM8.4,32.4H9.6V33.6H8.4zM10.8,32.4H12V33.6H10.8zM14.4,32.4H15.6V33.6H14.4zM16.8,32.4H18V33.6H16.8zM18,32.4H19.2V33.6H18zM20.4,32.4H21.6V33.6H20.4zM21.6,32.4H22.8V33.6H21.6zM27.6,32.4H28.8V33.6H27.6zM28.8,32.4H30V33.6H28.8zM30,32.4H31.2V33.6H30zM31.2,32.4H32.4V33.6H31.2zM32.4,32.4H33.6V33.6H32.4zM34.8,32.4H36V33.6H34.8zM36,32.4H37.2V33.6H36zM37.2,32.4H38.4V33.6H37.2zM3.6,33.6H4.8V34.8H3.6zM6,33.6H7.2V34.8H6zM7.2,33.6H8.4V34.8H7.2zM8.4,33.6H9.6V34.8H8.4zM10.8,33.6H12V34.8H10.8zM13.2,33.6H14.4V34.8H13.2zM14.4,33.6H15.6V34.8H14.4zM15.6,33.6H16.8V34.8H15.6zM18,33.6H19.2V34.8H18zM20.4,33.6H21.6V34.8H20.4zM22.8,33.6H24V34.8H22.8zM24,33.6H25.2V34.8H24zM26.4,33.6H27.6V34.8H26.4zM27.6,33.6H28.8V34.8H27.6zM28.8,33.6H30V34.8H28.8zM32.4,33.6H33.6V34.8H32.4zM33.6,33.6H34.8V34.8H33.6zM36,33.6H37.2V34.8H36zM3.6,34.8H4.8V36H3.6zM6,34.8H7.2V36H6zM7.2,34.8H8.4V36H7.2zM8.4,34.8H9.6V36H8.4zM10.8,34.8H12V36H10.8zM13.2,34.8H14.4V36H13.2zM16.8,34.8H18V36H16.8zM18,34.8H19.2V36H18zM21.6,34.8H22.8V36H21.6zM22.8,34.8H24V36H22.8zM31.2,34.8H32.4V36H31.2zM34.8,34.8H36V36H34.8zM37.2,34.8H38.4V36H37.2zM3.6,36H4.8V37.2H3.6zM10.8,36H12V37.2H10.8zM14.4,36H15.6V37.2H14.4zM15.6,36H16.8V37.2H15.6zM16.8,36H18V37.2H16.8zM18,36H19.2V37.2H18zM22.8,36H24V37.2H22.8zM27.6,36H28.8V37.2H27.6zM30,36H31.2V37.2H30zM31.2,36H32.4V37.2H31.2zM33.6,36H34.8V37.2H33.6zM36,36H37.2V37.2H36zM3.6,37.2H4.8V38.4H3.6zM4.8,37.2H6V38.4H4.8zM6,37.2H7.2V38.4H6zM7.2,37.2H8.4V38.4H7.2zM8.4,37.2H9.6V38.4H8.4zM9.6,37.2H10.8V38.4H9.6zM10.8,37.2H12V38.4H10.8zM13.2,37.2H14.4V38.4H13.2zM16.8,37.2H18V38.4H16.8zM19.2,37.2H20.4V38.4H19.2zM21.6,37.2H22.8V38.4H21.6zM22.8,37.2H24V38.4H22.8zM24,37.2H25.2V38.4H24zM26.4,37.2H27.6V38.4H26.4zM27.6,37.2H28.8V38.4H27.6zM30,37.2H31.2V38.4H30zM33.6,37.2H34.8V38.4H33.6zM36,37.2H37.2V38.4H36z" id="qr-path" fill="#000000" fill-opacity="1" fill-rule="nonzero" stroke="none"/></svg>