<svg xmlns="http://www.w3.org/2000/svg" width="160" height="160" viewBox="0 0 160 160" role="img" aria-label="QR placeholder al sitio Drone Mapping">
  <rect width="160" height="160" rx="12" fill="#1A1A1A" stroke="#7BC142" stroke-width="2"/>
  <g fill="#7BC142">
    <!-- finder patterns -->
    <rect x="20" y="20" width="34" height="34" rx="4" fill="none" stroke="#7BC142" stroke-width="6"/>
    <rect x="32" y="32" width="10" height="10"/>
    <rect x="106" y="20" width="34" height="34" rx="4" fill="none" stroke="#7BC142" stroke-width="6"/>
    <rect x="118" y="32" width="10" height="10"/>
    <rect x="20" y="106" width="34" height="34" rx="4" fill="none" stroke="#7BC142" stroke-width="6"/>
    <rect x="32" y="118" width="10" height="10"/>
    <!-- scattered modules (decorative) -->
    <rect x="72" y="24" width="8" height="8"/><rect x="88" y="40" width="8" height="8"/>
    <rect x="72" y="56" width="8" height="8"/><rect x="24" y="72" width="8" height="8"/>
    <rect x="40" y="72" width="8" height="8"/><rect x="56" y="88" width="8" height="8"/>
    <rect x="72" y="72" width="8" height="8"/><rect x="88" y="72" width="8" height="8"/>
    <rect x="104" y="72" width="8" height="8"/><rect x="120" y="88" width="8" height="8"/>
    <rect x="72" y="104" width="8" height="8"/><rect x="88" y="104" width="8" height="8"/>
    <rect x="104" y="104" width="8" height="8"/><rect x="120" y="120" width="8" height="8"/>
    <rect x="88" y="120" width="8" height="8"/>
  </g>
  <text x="80" y="152" font-family="'Space Grotesk', monospace" font-size="7" fill="rgba(255,255,255,0.4)" text-anchor="middle" letter-spacing="1">QR · PLACEHOLDER</text>
</svg>
